<?xml version="1.0" ?><!DOCTYPE svg  PUBLIC '-//W3C//DTD SVG 1.1//EN'  'http://www.w3.org/Graphics/SVG/1.1/DTD/svg11.dtd'><svg height="512px" style="enable-background:new 0 0 512 512;" version="1.1" viewBox="0 0 512 512" width="512px" xml:space="preserve" xmlns="http://www.w3.org/2000/svg" xmlns:xlink="http://www.w3.org/1999/xlink"><g id="file__x2C__type__x2C__document__x2C__format__x2C__computer__x2C___mp4__x2C__video__x2C_"><g><g><polygon points="111.074,26.468 353.079,26.468 424.601,98.843      424.601,448.875 111.074,448.875    " style="fill-rule:evenodd;clip-rule:evenodd;fill:#FFFFFF;"/><path d="M424.601,455.736H111.074c-3.79,0-6.86-3.07-6.86-6.861V26.468c0-3.79,3.07-6.86,6.86-6.86     h242.005c1.831,0,3.593,0.734,4.877,2.037l71.526,72.375c1.267,1.285,1.982,3.019,1.982,4.822v350.032     C431.465,452.666,428.391,455.736,424.601,455.736z M117.934,442.016h299.812V101.66l-67.534-68.333H117.934V442.016z" style="fill:#5D84C3;"/></g><g><rect height="105.6" style="fill-rule:evenodd;clip-rule:evenodd;fill:#5D84C3;" width="313.529" x="133.982" y="178.615"/></g><g><path d="M212.566,259.461h-11.189v-9.953h11.189V259.461z M238.271,203.366l14.119,41.301h0.267     l14.25-41.301h14.513v56.095H270.37v-16.813l1.064-24.618l-0.267-0.133l-14.917,41.563h-7.458l-14.651-41.43l-0.266,0.133     l1.067,24.484v16.813h-11.189v-56.095H238.271z M302.999,239.152v20.309h-11.187v-56.095h22.107     c6.392,0,11.32,1.615,15.055,4.979c3.594,3.23,5.461,7.535,5.461,12.912c0,5.382-1.867,9.691-5.461,12.917     c-3.734,3.226-8.663,4.979-15.055,4.979H302.999z M302.999,230.406h10.921c3.065,0,5.465-0.808,7.062-2.556     c1.598-1.748,2.396-3.9,2.396-6.456c0-2.689-0.798-4.979-2.396-6.727c-1.597-1.748-3.996-2.556-7.062-2.556h-10.921V230.406z      M373.86,238.61h6.259v8.613h-6.259v12.238h-11.191v-12.238h-22.507l-0.532-6.727l23.039-37.13h11.191V238.61z M350.019,238.61     h12.65v-20.176l-0.133-0.133l-0.932,1.611L350.019,238.61z" style="fill:#FFFFFF;"/></g><g><path d="M267.498,147.358c-14.009,0-26.188-5.08-32.582-13.591c-2.276-3.028-1.666-7.328,1.365-9.604     c3.028-2.285,7.328-1.666,9.606,1.363c3.761,5.006,12.038,8.113,21.61,8.113c0.004,0,0.009,0,0.018,0     c9.691-0.005,18.639-3.263,22.269-8.108c2.276-3.033,6.575-3.648,9.604-1.372c3.032,2.271,3.647,6.571,1.376,9.604     c-6.286,8.379-19.02,13.591-33.239,13.596C267.516,147.358,267.507,147.358,267.498,147.358z" style="fill:#5D84C3;"/></g><g><path d="M147.971,234.173c-0.023,0-0.046,0-0.069,0c-41.671-0.404-66.396-11.247-73.49-32.226     c-9.243-27.343,17.012-62.735,32.446-74.757c2.99-2.322,7.303-1.79,9.629,1.198c2.328,2.992,1.792,7.3-1.195,9.631     c-13.264,10.329-34.527,39.879-27.88,59.532c6.254,18.501,36.419,22.668,60.624,22.902c3.788,0.037,6.83,3.138,6.793,6.924     C154.791,231.145,151.729,234.173,147.971,234.173z" style="fill:#5D84C3;"/></g><g><polygon points="353.079,98.843 424.601,98.843 353.079,26.468         " style="fill-rule:evenodd;clip-rule:evenodd;fill:#D6E3F4;"/><path d="M424.601,105.703h-71.521c-3.79,0-6.86-3.07-6.86-6.86V26.468c0-2.781,1.68-5.291,4.254-6.346     c2.574-1.061,5.529-0.45,7.483,1.523l71.526,72.375c1.946,1.968,2.515,4.914,1.45,7.465     C429.868,104.042,427.372,105.703,424.601,105.703z M359.938,91.983h48.239L359.938,43.17V91.983z" style="fill:#5D84C3;"/></g><g><path d="M243.341,494.393c-0.378,0-0.759-0.027-1.143-0.092l-22.509-3.771     c-3.306-0.555-5.727-3.418-5.727-6.768v-34.887c0-3.789,3.07-6.859,6.86-6.859c3.791,0,6.86,3.07,6.86,6.859v29.082l16.783,2.809     c3.737,0.629,6.259,4.166,5.632,7.9C249.536,492.021,246.631,494.393,243.341,494.393z" style="fill:#5D84C3;"/></g><g><path d="M329.25,494.393c-0.381,0-0.762-0.027-1.146-0.092l-22.507-3.771     c-3.309-0.555-5.727-3.418-5.727-6.768v-34.887c0-3.789,3.069-6.859,6.859-6.859s6.86,3.07,6.86,6.859v29.082l16.78,2.809     c3.739,0.629,6.259,4.166,5.635,7.9C335.445,492.021,332.536,494.393,329.25,494.393z" style="fill:#5D84C3;"/></g><g><path d="M294.873,66.154c6.259-1.753,13.188,0.936,16.519,6.855     c4.13,7.131,1.73,16.147-5.332,20.181c-7.057,4.171-15.978,1.753-19.979-5.378c-3.193-5.515-2.396-12.38,1.469-16.95     c1.331,1.743,3.726,2.418,5.727,1.211C295.276,70.862,296.075,68.168,294.873,66.154L294.873,66.154z" style="fill-rule:evenodd;clip-rule:evenodd;fill:#5D84C3;"/></g><g><path d="M232.811,66.154c6.259-1.753,13.185,0.936,16.649,6.855     c3.994,7.131,1.597,16.147-5.462,20.181c-6.924,4.171-15.982,1.753-19.979-5.378c-3.196-5.515-2.397-12.38,1.466-16.95     c1.331,1.743,3.861,2.418,5.727,1.211C233.343,70.862,234.008,68.168,232.811,66.154L232.811,66.154z" style="fill-rule:evenodd;clip-rule:evenodd;fill:#5D84C3;"/></g><g><path d="M267.837,298.609c34.364,0,62.331,28.119,62.331,62.822     c0,34.842-27.967,62.959-62.331,62.959c-34.361,0-62.331-28.117-62.331-62.959C205.506,326.729,233.476,298.609,267.837,298.609     L267.837,298.609z" style="fill-rule:evenodd;clip-rule:evenodd;fill:#D6E3F4;"/><path d="M267.837,431.252c-38.151,0-69.19-31.322-69.19-69.82c0-38.424,31.039-69.682,69.19-69.682     c38.154,0,69.195,31.258,69.195,69.682C337.032,399.93,305.991,431.252,267.837,431.252z M267.837,305.469     c-30.585,0-55.471,25.105-55.471,55.963c0,30.932,24.886,56.1,55.471,56.1c30.588,0,55.476-25.168,55.476-56.1     C323.313,330.574,298.425,305.469,267.837,305.469z" style="fill:#5D84C3;"/></g><g><path d="M296.203,364.391l-20.244,11.84l0,0l-20.373,11.838c-1.599,0.945-3.595,0.404-4.529-1.211     c-0.266-0.537-0.399-1.074-0.399-1.748l0,0v-47.217c0-1.887,1.466-3.363,3.329-3.363c0.667,0,1.333,0.133,1.865,0.537     l20.107,11.705l0.138,0.133l20.106,11.705c1.602,0.941,2.135,2.955,1.203,4.57C297.14,363.721,296.607,364.125,296.203,364.391     L296.203,364.391z" style="fill:#5D84C3;"/></g></g></g><g id="Layer_1"/></svg>